/* XPM */
static char *_6d1b1cb6cf84e6183519d52dab5092c4WPIXe5GtGlk1MWc[] = {
/* columns rows colors chars-per-pixel */
"64 64 178 2 ",
"   c #605E34",
".  c #636136",
"X  c #66643B",
"o  c #69663C",
"O  c #6C6A3D",
"+  c #706E3E",
"@  c #6A6640",
"#  c #6E6B43",
"$  c #716E44",
"%  c #736F49",
"&  c #747244",
"*  c #787747",
"=  c #7A7946",
"-  c #76744B",
";  c #79764E",
":  c #7C7B4D",
">  c #7A7650",
",  c #7E7B53",
"<  c #817F54",
"1  c #827E58",
"2  c #81814F",
"3  c #848255",
"4  c #888757",
"5  c #888855",
"6  c #84835A",
"7  c #89865D",
"8  c #8C8A5D",
"9  c #878664",
"0  c #898760",
"q  c #8D8B64",
"w  c #8C8B6A",
"e  c #918E65",
"r  c #918F69",
"t  c #959465",
"y  c #95936C",
"u  c #98966D",
"i  c #9A996B",
"p  c #918F71",
"a  c #949473",
"s  c #999771",
"d  c #979876",
"f  c #9C9A74",
"g  c #979778",
"h  c #9C967E",
"j  c #97997B",
"k  c #9D9C7B",
"l  c #A09E77",
"z  c #A19E7B",
"x  c #9FA07E",
"c  c #A4A377",
"v  c #A4A27D",
"b  c #A8A77D",
"n  c #9F9B83",
"m  c #A19D85",
"M  c #A39E89",
"N  c #9FA080",
"B  c #A5A383",
"V  c #A9A683",
"C  c #A6A883",
"Z  c #ACAA85",
"A  c #A5A28A",
"S  c #A9A58D",
"D  c #A7A98B",
"F  c #ADAA8C",
"G  c #B0AE87",
"H  c #B1AD8D",
"J  c #B4B28D",
"K  c #B8B68F",
"L  c #ABA691",
"P  c #A7AB92",
"I  c #AEAA92",
"U  c #AFAC99",
"Y  c #B2AD95",
"T  c #B3AE99",
"R  c #ADB294",
"E  c #B5B295",
"W  c #B9B496",
"Q  c #BCB996",
"!  c #B6B29B",
"~  c #BAB59C",
"^  c #B7B99C",
"/  c #BCB99D",
"(  c #B7B5A1",
")  c #BBB6A0",
"_  c #BBB6A2",
"`  c #BBB6A3",
"'  c #B9B5A1",
"]  c #BCB7A1",
"[  c #BCB7A3",
"{  c #BCB7A4",
"}  c #BAB6A2",
"|  c #B6B8A1",
" . c #BBB9A0",
".. c #BBB9A3",
"X. c #BDB9A0",
"o. c #BCBAA1",
"O. c #BFBBA0",
"+. c #BEBAA1",
"@. c #BDB8A2",
"#. c #BEB9A3",
"$. c #BFBBA2",
"%. c #BCBAA3",
"&. c #BDB8A4",
"*. c #BEB9A5",
"=. c #BDBBA4",
"-. c #BFBAA4",
";. c #BFBAA6",
":. c #BFBAA7",
">. c #BEB9A6",
",. c #BEBCA5",
"<. c #BDBBA4",
"1. c #BEBDA8",
"2. c #C0BC9F",
"3. c #C1BE9D",
"4. c #C0BCA1",
"5. c #C0BCA3",
"6. c #C1BDA2",
"7. c #C0BBA5",
"8. c #C0BBA7",
"9. c #C1BDA4",
"0. c #C2BEA5",
"q. c #C1BCA6",
"w. c #C2BDA7",
"e. c #C3BFA6",
"r. c #C1BDA4",
"t. c #C0BBA8",
"y. c #C1BCA8",
"u. c #C1BCA9",
"i. c #C2BDA9",
"p. c #C3BEA8",
"a. c #C2BDAA",
"s. c #C3BEAA",
"d. c #C4BFA9",
"f. c #C4BFAB",
"g. c #C3BEAD",
"h. c #C4BFAC",
"j. c #C4BEAE",
"k. c #C2BEA9",
"l. c #BFC2A7",
"z. c #BFC1AB",
"x. c #C2C09F",
"c. c #C4C0A7",
"v. c #C4C2A5",
"b. c #C8C4A7",
"n. c #C5C1A8",
"m. c #C5C0AA",
"M. c #C6C1AB",
"N. c #C3C1AD",
"B. c #C5C0AD",
"V. c #C6C1AD",
"C. c #C7C2AC",
"Z. c #C7C2AE",
"A. c #C4C2AE",
"S. c #C6C4AF",
"D. c #C4C2AC",
"F. c #C8C3AD",
"G. c #C8C3AF",
"H. c #C9C4AE",
"J. c #C9C5AD",
"K. c #C5C8AD",
"L. c #CCC9AD",
"P. c #C6C0B0",
"I. c #C6C5B1",
"U. c #C9C3B2",
"Y. c #C9C4B0",
"T. c #CBC6B1",
"R. c #CAC6B2",
"E. c #CDC9B4",
"W. c #CECCB9",
"Q. c #D1CCB5",
"!. c #D3CEBB",
"~. c #D4D2B6",
"^. c #D4D2BC",
"/. c #D9D5BE",
"(. c #DCDBBF",
"). c #D6D2C0",
"_. c #D9D4C1",
"`. c #DBDAC3",
/* pixels */
"[ ;.q.q.X.X.q.q./ ~ / ~ ~ 3.2.2.W ~ W W 3.2.2.~ W 2.2.W ~ E E W Y E H H 2.2.2.2.Y 2.H Y 2.2./ / ~ ) ) ) 7.7.7.7.8.8.7.7.7.7.7.! ",
"y.8.8.8.8.X.X.X./ / / / 3.~ / 3.~ W 3.~ W 2.W 2.E W 2.~ W W W W H W 2.H H 2.2.H H 2.2.2.T T / / ) ) ) [ 7.7.7.! 7.7.7.7.7.7.7.7.",
"8.;.X.[ X.;.~ ~ / X./ / ~ 2.2.2.~ 3.~ ~ 2.2.~ ~ W ~ W W W E W W H E 3.H S 2.2.2.2.Y Y 2.2.~ ~ E ;.X.X.[ 7.~ ! 7.2.7.! 7.7.7.7.' ",
"8.8.8.5.;.q.X.4.X.X.X.5.2.3.2.~ 2.2.3.2.2.2.3.2.W W ~ W ~ E W W H W H 2.3.2.2.H 2.T 2.2.W ~ ~ ~ X.;.{ X.' 7.7.! ! ' 7.! ! 7.7.7.",
"5.q.M.p.X./ X.q./ [ / 2.2.2.2.5.2./ / 3.3.2.2./ W ~ W W ~ W E E H Y W W 2.2.2.H 2.T 2.2.T 2.) ) [ X./ [ 4.{ ' ' 7.T T 7.7.7.7.7.",
"8.q.p./ Y L Y ~ ~ / / 5.2.5.2.2.2.2.2.~ 2.2./ / ~ W W W W W E Y Y T 2.W H 2.2.H Y 2.2.T 2.2.7.2.[ [ [ [ { 4.7.4.2.7.! ! 2.7.7.7.",
"5.4./ T S S F Y ~ ~ / [ 7.4./ 4.5.2./ / / / / / ~ ~ W ~ / ~ Y H Y W W W W W 2.Y 2.Y T 2.2.2.2.) [ [ / 4.7.4.' ' T 7.! 7.7.7.7.7.",
"e.q.X.! Y Y Y ! ! ! ~ 4.[ 4.4.4.2.2.[ / / 2./ ~ W ~ ~ / / ! Y H W W 2.W W 2.2.W Y 2.2.7.T 2.7.] 5.[ [ [ [ [ ' ~ 7.' ' T 7.7.7.t.",
"4./ ! ! / 8.5.[ T E ! 5.8.4.[ 5./ X./ / ~ ~ ~ / ~ 3.2.! W ~ E Y H Y W W W W ) ) W W W ] ) ) @.@.T 7.T 7.7.7.7.7.T 7.2.T T 8.7.8.",
"2.~ E E ~ / / ~ ! ! ~ 4.5.2.5.5.4.X.4./ ~ ~ / / E ~ ~ / 2.2.~ Y H W W ) W W T W ] ] ] ] ) ) ) W 7.7.7.7.7.T 7.7.7.7.7.T T 8.7.2.",
"~ E E ~ ! ~ ~ / / ~ ~ [ 7.[ [ 5.X.) X.~ ~ ~ ~ ~ ! / / ! ~ / E Y H W W W Y Y Y W T W W T ) #.] @.7.7.T 8.2.T 7.7.2.8.7.T T 2.T 7.",
"~ 2./ 2.~ ~ 4.5.4.~ / 4.4.~ / [ ~ / X.X.~ ~ E ~ 5./ T Y Y Y Y Y H H L Y Y Y W W Y L Y Y ) -.-.@.T 2.2.7.7.7.T 7.T t.8.7.8.8.8.T ",
"~ 2.2.2./ / 7.q.4.2.7.4.[ ' ' [ X.q.q.4.X.~ ~ ~ T Y Y Y T Y Y Y T Y Y L H Y ) ) W Y Y Y T ) ) ) 8.T 7.7.7.7.7.7.7.7.7.T T 7.7.7.",
"~ 3.2.2.4.~ 4.8.7.~ 7.8.7.' ' ~ X.5.q.4.X.~ E T S S F E ~ ~ ~ ~ #.W T Y Y W ) #.) ) ) W ) T T ) 7.7.T 7.T 7.7.7.8.7.T S S Y T 7.",
"~ ~ ~ 3.4.4.4.4.7.4.7.8.7.~ ~ ~ ~ X.X.X.~ T Y S S S Y ! ~ / ~ 2.) W W W ) W ) W W ) ) ) T ) ) -.7.7.7.7.7.7.7.7.7.T T L S L 7.7.",
"2.2.2.2.4.4.4.7.4.4.8.w.8.' ' ' X.X.q./ ~ T Y F / T Y Y T T ! 2.W Y Y W ) ) W ) T ) ) ) T T ) @.2.7.T 7.7.7.7.7.I I T T T 7.7.T ",
"5.4.q.4.4.f.w.4.2.7.7.7.w.w.w.2.d.j.j.q.7.T 7.7.! Y S M H Y Y E E ! ! / [ ~ ~ ~ ~ ~ 2.Y T 2.T 2.U T 7.7.7.7.7.7.S L T 7.2.7.7.7.",
"4.e.w.7.! ~ 7.j.w.w.7.j.d.j.d.d.d.d.7.7.2.7.7.T 2.W T Y I H Y E ! ! ! / / / ~ / 2.7.! 2.W T T T 7.7.7.7.7.U L T L T T 7.T 7.7.T ",
"7.q.w.7.! T ~ w.7.w.j.j.j.j.d.d.j.j.2.T 7.7.7.T 2.T T ~ Y T Y E E ! ! ! ~ ~ / [ ! ~ ~ T T T 2.2.7.T L 7.2.L L U Y T T 7.7.T 8.7.",
"f.7.7.7.4.7.' ' 7.7.w.i.L.d.d.Q.Q.d.7.2.7.7.7.T ~ Y Y Y ! Y H Y Y T T T ~ / / 5.4.! ~ ~ W Y Y T L T T T U L L 7.T 7.7.7.7.7.7.7.",
"p.8.7.8.8.4.! ! 7.7.7.7.i.8.w.j.j.t.8.8.T 7.7.T T L L Y W T Y L Y T T E T E ! ! 7.2.~ ~ 2.S S Y T 2.7.L M L T 7.7.7.8.8.7.7.7.T ",
"2.p.f.7.T T T 7.7.7.2.7.7.7.2.8.8.t.T T 7.T 7.t.2.L S Y ~ 2.Y Y ~ E E T T Y Y H L L Y Y T H I T S L T M M 2.T 2.7.7.7.7.7.7.7.7.",
"! f.q.Y M L ' ' 7.T T T T L L T T 8.7.7.7.7.8.t.T I L L Y T T Y ! ! E ! Y H I S m m M Y Y H S T S L T L T T 8.7.7.7.7.T T 7.7.7.",
"w.w.T m M Y 7.T 7.7.T T 2.L L I ' 8.7.t.t.t.t.7.2.Y L L I Y Y T E E E ! T T T L H H Y E Y S M S T T 7.7.7.7.T 7.2.T 7.T 7.7.7.8.",
"j.2.L S I L T 2.T T 7.T T T 7.7.t.t.t.j.j.t.t.j.t.L M L L L T T T T ! T I S S H Y 2.7.2.M n M H Y T W T T T T 2.7.T T T 2.8.8.8.",
"7.L M M L L L L 7.T 7.T T T T 7.j.j.u.j.t.t.t.j.t.T I ' 7.7.T ! E ~ ~ ~ T Y T ! Y 2.Y 2.2.L I L T 7.T 2.T 7.7.d.8.7.7.2.T 8.7.7.",
"! M M S I L S S T 2.T T T 7.7.T j.j.j.j.t.' t.j.t.' T 7.7.! ! ! ~ / ~ ~ ! ! ~ 5.2.L L T 2.T Y T T T 7.7.q.7.7.d.p.p.8.7.7.8.7.T ",
"T L L Y T T L L 7.T 7.7.7.T T 7.j.i.j.j.t.t.' ' t.T T T 7.! 7.! / / ~ ~ E ! / 4.7.2.2.Y T 2.T T L T 7.j.d.q.7.7.8.p.p.8.8.7.7.Y ",
"T T T T T T T T 7.7.T 7.T T T 7.j.j.j.j.j.j.T L ' ' 7.7.7.t.7.7.~ ~ ! ! ! ! 2.5.7.7.2.T T Y W T T T T 7.q.p.j.d.q.p.p.q.7.7.2.L ",
"T T ! T Y L Y 7.7.T 7.7.7.7.2.7.j.j.j.j.j.w.' L T T j.j.j.j.7.7.~ / ~ ! ! ~ / / 2.7.7.2.W T 7.7.8.T W 7.d.q.7.7.8.q.p.8.7.T T L ",
"T T T Y I L T T 7.7.7.7.7.8.7.w.T.Q.j.7.' 8.T U T t.u.j.j.d.q.2.~ ~ ' 4.' / ~ ! T 2.7.2.2.T 7.2.7.T T 7.7.T L L T 7.7.T T T T T ",
"T 2.T T T T T Y T 7.7.7.8.t.j.j.T.j.w.T L L T 8.t.t.j.j.j.d.q.8.~ / / 4.4.' ~ ! 7.7.7.T 2.7.2.T 7.T L L S M M S S T 7.7.W T T 7.",
"( ( ( ` ` { 1.P.S.N.N.A.N.N.N.I.j.j.Q.j.2.L T w.7.T.Q.T.d.d.7.2.T 2.8./ [ 8.8.~ 7.T T I I T 2.T M m h h M L T M L 7.7.Y Y ! ! T ",
"T ! ` 1.1.g.I.W.R.I.N.z.N.N.P.N./.Q.j.j.8.2.7.d.e.T.T.d.d.h.j.7.I T ~ ~ ' 8.{ T U T U L I 2.2.2.S L S H L L 2.2.T 2.T L I ! ~ ! ",
"( ( 1.I.R.I.R.W.W.R.I.A.R.R.I.c.2.2.T T 7.u.L.j.T.Q.T.d.d.d.7.Y H Y T Y ' ' ! U U U T T U Y Y H m L I T L Y U t.7.2.L L ! ( ~ ! ",
"( 1.P.W.W.R.R.W.W.R.E.R.I.A.{ ! n n n m L 7.j.d.e.d.H.H.Q.T.w.7.Y Y Y H U T U M U T T T Y L S M L L L 2.8.t.t.t.7.7.T 7...! R ! ",
"1.1.W.).W.R.I.R.R.W.R.,.E P S M M S S M L 7.7.j.d.j.T.L.d.q.2.T T Y H S L L L L L L T T T L S S Y Y U T T 8.' ' | ! ! ` ( ! ! | ",
"I.j.j.).W.R.R.W.W.E.c.I M A S P T 2.7.I S S L T q.7.2.T L L S M Y Y S S L L L L L L T ! Y H F I M Y T L M M L L U U U ( ! T 1.I.",
").1.P.).R.R.R.Q.E.K.<.P A P ! ^ 2.T L I L S L L M m m m S Y T T Y H I Y I H L L L T ! ! E Y E ~ 7.8.t.7.L L U ' | { 1.` | 1.z.W.",
").).I.z.I.S.R.W.E.R.X.P D I I P 7.T I T T Y L L I S M S Y T L S S Y Y T I S M M L H Y ~ ~ ! 4.d.8.8.7.T U U ' t.1.z.I.I.z.z.I.I.",
"1.P.W.R.R.R.W.).{ ^ I I ! ! ! I T 7.2.L L L L T T L M M Y T L L A S S V m V E 4.7.2.~ 7.J.d.e.d.P.>.{ 1.U L ! z.z.I.W.W.W.z.z.).",
"1.).W.I.N.1.N.I.{ ~ ! ! ^ ^ ) ^ T 2.7.7.7.2.T I Y L T T ! 2.2.T T Y T T Y 3.4.J.2.W 2.b.L.J.J.e.y.( { 1.U ( 1.I.P.I.z.z.W.z.z.z.",
").I.I.N.l.<.,.c.^ ( ^ | ..<.<.{ 7.t.i.w.7.2.Y L T 2.d.d.w.q.f.d.J.v.4.4.e.e.e.6.W W e.Q.L.H.E.J.N.1.z.1.( { N.A.W.I.1.1.z.z.z.z.",
"( 1.1.z.,.c.S.I.( ) ;.,.,.c.z.c.j.j.j.w.2.T T 7.p.d.Q.H.j.h.Q.!.Q.E.J.J.L.b.3.2.2.E e.L.e.e.L.f.S.N.P.1...1.N.<.1.I.1.1.z.z.z.z.",
"/ / o.,.,.,.c.D.,.z.c.S.U.E.Q.j.Q.Q.j.d.7.7.8.j.H.H.Q.H.h.J.Q.!.J.J.J.J.J.b.b.3.2.H 2.6.! 2.L.f.c.,.z.z.o.K.K.l.l.z.z.z.z.| P P ",
"^ Q ^ Q Q ^ ^ ^ ,.,.N.N.E.j.E.Q.d.d.Q.Q.t.j.j.j.H.H.H.Q.Q.Q.Q.H.J.J.L.L.J.e.3.3.3.E W ~ T ~ C.f.c.<.c.M.l.l.K.<.z.z.z.z.z.| | R ",
"W R ^ Q ~ ^ ! Y ;.{ :.j.U.).Q.j.j.Q.Q.j.Q.d.j.Q.T.H.H.Q.Q.Q.Q.E.Q.E.L.L.b.e.3.3.3.W W ~ 2.5.q.f.M.X.l.S.l.l.l.l.z.l.P N P ^ l.l.",
"E W W / / X.) ^ 1.` :.j.U.)._.Q.Q./._.Q.d.d.L.Q.L.J.p.e.d.L.Q.Q.E.E.J.J.J.b.3.3.3.3.2.2.e.f.q.J.,.^ ,.K.l.x.l.K.P P j N P l.R P ",
"^ K ^ v.K.! E ^ ,.z.S.S.S.W.^.^.).).!.Q.Q.Q.L.b.H S m H 2.2.2.J.E.T.L.L.J.b.b.b.J.E E C.E.j.t.V.( T 1.z.,.K.v.B 9 g x a j P ^ R ",
"J P D D F I | K.l...l.K.I.^.`.).).).).)._.Q.e.3.H H J H H M Y e.e.J.L.L.Q.L.3./ E E ~ e.q.' ` j.I.c...<.K.v.C 9 x N x w 6 w x N ",
"g C R R ^ / l.^ K.! | K.E.~.^.^.).)././._.~.b.W W 3.3.J F V I 6.L.L.J.b.b.L.b.b.3.6.J.J.M.8.w.j.| I.z.<.K.^ g a a x C C x x x x ",
"^ x./ ^ ^ ^ / Q / I ! K.^.^.^.W./.!.!.E.Q.J.e.W W 3.H 3.2.W G W J.L.b.b.b.b.J.L.H Y E ~ / q.{ T U { l.| ^ D k D d x C C C C G R ",
"F F E E ^ E E ^ ^ I ^ ~.(.(.^.~.Q.Q.Q.b.,.4.Q J G H G K 2.3.G S W ~ 2.b.L.L.3.H r z M S T 5.8.~ ,.! E E A B Z C R G D G D C C C ",
"w p j C D B x x D B F / l.^ R R T 5.e./ Q / / Q H 3.W 3.3.J H J I G F W 6.b.H s a V ~ ~ ! / e.v.c.R ! R k C R Z J G Z Z Z x d a ",
"R Z N d y a j x B j N N j a d a h S H H E x.v.Q H 3.3.3.3.K H K J G m z V H V p f S Q W Y H Y Y I I F C N D J G x x s y a f v C ",
"G W R G Z / b.v.x.Q x.E C Z J E z B B z C Q Q J G J K K 3.G b z G W K z s s h z l V H H F V V m B D a p F W x i t x b C F R G C ",
"v 3.3.v z H 3.V K B l F K K J W K J K Q x y C b Z Z J K G x a i V G J G z l z m V H V H F V Y Z Y p q Z H l u b x b J G G J Z C ",
"V v l h l l l v f f l Z Z v b J J Z J Q b i x r q q q q 8 q t y u l i l r e r f V B f V z q r y q 1 1 r r 8 u b G b v f f C G Z ",
"l z v V b v l s f v C Z l q e f x t i x f r a 6 6 7 1 - - 2 8 8 8 3 4 e e q r z l f y s y 0 q w 1 p u e 1 r t l b c i e r s s u ",
"q l v l u f y 1 , 3 t u e 7 e i 8 5 : 4 6 3 8 , q r q 6 < 3 3 3 1 < < 8 q e r s f v a , - , , % < 1 1 % < < < < = = ; ; , q y u ",
"e r 1 1 < < < O & < < 8 e 8 e t i t 5 8 6 3 q 7 , , 6 6 3 : : 2 = 2 : & - > ; $ @ % > @ # 4 e 1 % # @   O & < + O $ + o @ - 0 r ",
"r 1 < 1 8 1 < < 1 < < < < * & + 2 2 = = & O $ - , ; : , 2 = : 5 5 8 8 3 < 3 , # , ; , > < < < < 1 < 1 1 1 4 < 8 4 8 8 1 - % % 1 ",
"< < < 1 e 1 < < 8 < 5 4 8 8 5 < 2 5 2 2 2 $ ; , q 7 6 , = : 5 5 t i i t t u r q 1 % < < 1 8 1 t 1 1 7 8 8 1 < 5 < < 8 8 1 , > , ",
"  . < < o o O + O O + + + + + < : 5 : : : O $ - - ; & .   O + = = + & * ; ; > > ; $ %     < & < < - # O $ & = & + + % $ @   @ # "
};
